<svg width="17" height="22" viewBox="0 0 17 22" fill="none" xmlns="http://www.w3.org/2000/svg">
<path d="M8.49992 9.33333C10.8011 9.33333 12.6666 7.46785 12.6666 5.16667C12.6666 2.86548 10.8011 1 8.49992 1C6.19874 1 4.33325 2.86548 4.33325 5.16667C4.33325 7.46785 6.19874 9.33333 8.49992 9.33333Z" stroke="black" stroke-width="1.66667" stroke-linecap="round" stroke-linejoin="round"/>
<path d="M1 21H8.5H16V20.0965C15.9867 18.8262 15.6517 17.5798 15.0262 16.4742C14.4007 15.3683 13.5052 14.4392 12.4232 13.7733C11.3412 13.1075 10.1082 12.7268 8.8392 12.6667C8.72607 12.6614 8.61297 12.6586 8.5 12.6583C8.38703 12.6586 8.27393 12.6614 8.1608 12.6667C6.89182 12.7268 5.65875 13.1075 4.57678 13.7733C3.49483 14.4392 2.59928 15.3683 1.97378 16.4742C1.3483 17.5798 1.01327 18.8262 1 20.0965V21Z" stroke="black" stroke-width="1.66667" stroke-linecap="round" stroke-linejoin="round"/>
</svg>
