<svg width="21" height="22" viewBox="0 0 21 22" fill="none" xmlns="http://www.w3.org/2000/svg">
<path d="M20.0681 21C19.4203 18.9803 18.148 17.2185 16.4347 15.9686C14.7211 14.7187 12.6549 14.0452 10.534 14.0452C8.41307 14.0452 6.34692 14.7187 4.63343 15.9686C2.91997 17.2185 1.64767 18.9803 1 21H20.0681Z" stroke="#ABABAB" stroke-width="1.54272" stroke-linecap="round" stroke-linejoin="round"/>
<path d="M10.5339 14.0578C14.1397 14.0578 17.0628 11.1347 17.0628 7.52887C17.0628 3.92307 14.1397 1 10.5339 1C6.92809 1 4.005 3.92307 4.005 7.52887C4.005 11.1347 6.92809 14.0578 10.5339 14.0578Z" stroke="#ABABAB" stroke-width="1.54272" stroke-linecap="round" stroke-linejoin="round"/>
<path d="M12.6659 10.0549C12.6659 10.0549 12.1241 11.1209 10.534 11.1209C8.94383 11.1209 8.4021 10.0549 8.4021 10.0549" stroke="#ABABAB" stroke-width="1.54272" stroke-linecap="round" stroke-linejoin="round"/>
<path d="M16.9445 6.28582C16.9299 6.28592 16.9154 6.28596 16.9009 6.28596C15.003 6.28596 13.2992 5.45569 12.1327 4.13857C10.9662 5.45572 9.2624 6.28601 7.36462 6.28601C6.26259 6.28601 5.22595 6.00602 4.32196 5.51331C5.17129 2.89391 7.63136 1 10.5338 1C13.7145 1 16.364 3.27454 16.9445 6.28582Z" stroke="#ABABAB" stroke-width="1.54272" stroke-linecap="round" stroke-linejoin="round"/>
</svg>
