<svg width="22" height="22" viewBox="0 0 22 22" fill="none" xmlns="http://www.w3.org/2000/svg">
<path d="M11.5562 20.8968C11.1997 21.0344 10.8048 21.0344 10.4483 20.8968C7.66411 19.8052 5.27348 17.8998 3.58809 15.4294C1.90273 12.959 1.00082 10.0381 1 7.04753V2.53881C1 2.13069 1.16212 1.73929 1.45071 1.45071C1.73929 1.16212 2.13069 1 2.53881 1H19.4657C19.8738 1 20.2653 1.16212 20.5538 1.45071C20.8423 1.73929 21.0045 2.13069 21.0045 2.53881V7.03214C21.0068 10.0253 20.1063 12.9496 18.4207 15.4231C16.7353 17.8966 14.3429 19.8041 11.5562 20.8968Z" stroke="#ABABAB" stroke-width="1.53881" stroke-linecap="round" stroke-linejoin="round"/>
<path d="M4.59552 16.7427C5.97462 14.6737 8.32929 13.3105 11.0024 13.3105C13.6754 13.3105 16.03 14.6737 17.4091 16.7427" stroke="#ABABAB" stroke-width="1.53881" stroke-linecap="round" stroke-linejoin="round"/>
<path d="M11.0022 11.0023C12.9144 11.0023 14.4646 9.45215 14.4646 7.53996C14.4646 5.62777 12.9144 4.07764 11.0022 4.07764C9.09005 4.07764 7.53992 5.62777 7.53992 7.53996C7.53992 9.45215 9.09005 11.0023 11.0022 11.0023Z" stroke="#ABABAB" stroke-width="1.53881" stroke-linecap="round" stroke-linejoin="round"/>
</svg>
