<svg width="22" height="22" viewBox="0 0 22 22" fill="none" xmlns="http://www.w3.org/2000/svg">
<path d="M15.6154 1H2.53846C1.68879 1 1 1.68879 1 2.53846V15.6154C1 16.4651 1.68879 17.1538 2.53846 17.1538H15.6154C16.4651 17.1538 17.1538 16.4651 17.1538 15.6154V2.53846C17.1538 1.68879 16.4651 1 15.6154 1Z" stroke="black" stroke-width="1.53846" stroke-linecap="round" stroke-linejoin="round"/>
<path d="M21 5.61539V19.4615C21 19.8695 20.8378 20.2609 20.5494 20.5494C20.2609 20.8378 19.8695 21 19.4615 21H5.61536" stroke="black" stroke-width="1.53846" stroke-linecap="round" stroke-linejoin="round"/>
<path d="M6.00005 11.9848V6.16938C5.99888 6.07009 6.02444 5.9723 6.07402 5.88627C6.1236 5.80024 6.1954 5.72914 6.28191 5.68037C6.36842 5.63161 6.46644 5.60701 6.56571 5.60914C6.66499 5.61126 6.76187 5.64004 6.8462 5.69246L11.877 8.60015C11.9599 8.64911 12.0286 8.71886 12.0764 8.80249C12.1241 8.88612 12.1492 8.98077 12.1492 9.07707C12.1492 9.17338 12.1241 9.26801 12.0764 9.35166C12.0286 9.43529 11.9599 9.50503 11.877 9.554L6.8462 12.5386C6.75624 12.5964 6.65144 12.6269 6.5445 12.6265C6.43756 12.626 6.33305 12.5946 6.24357 12.536C6.1541 12.4774 6.08348 12.3942 6.04027 12.2964C5.99705 12.1986 5.9831 12.0904 6.00005 11.9848Z" stroke="black" stroke-width="1.53846" stroke-linecap="round" stroke-linejoin="round"/>
</svg>
