<svg width="22" height="22" viewBox="0 0 22 22" fill="none" xmlns="http://www.w3.org/2000/svg">
<path d="M15.6154 1H2.53846C1.68879 1 1 1.68879 1 2.53846V15.6154C1 16.4651 1.68879 17.1538 2.53846 17.1538H15.6154C16.4651 17.1538 17.1538 16.4651 17.1538 15.6154V2.53846C17.1538 1.68879 16.4651 1 15.6154 1Z" stroke="#ABABAB" stroke-width="1.53846" stroke-linecap="round" stroke-linejoin="round"/>
<path d="M21 5.61548V19.4616C21 19.8696 20.8378 20.261 20.5494 20.5495C20.2609 20.8379 19.8695 21.0001 19.4615 21.0001H5.61536" stroke="#ABABAB" stroke-width="1.53846" stroke-linecap="round" stroke-linejoin="round"/>
<path d="M6.00005 11.9846V6.16926C5.99888 6.06997 6.02444 5.97218 6.07402 5.88615C6.1236 5.80012 6.1954 5.72901 6.28191 5.68024C6.36842 5.63149 6.46644 5.60689 6.56571 5.60901C6.66499 5.61114 6.76187 5.63992 6.8462 5.69234L11.877 8.60003C11.9599 8.64898 12.0286 8.71874 12.0764 8.80237C12.1241 8.886 12.1492 8.98064 12.1492 9.07695C12.1492 9.17326 12.1241 9.26789 12.0764 9.35154C12.0286 9.43517 11.9599 9.50491 11.877 9.55388L6.8462 12.5385C6.75624 12.5963 6.65144 12.6268 6.5445 12.6263C6.43756 12.6259 6.33305 12.5945 6.24357 12.5359C6.1541 12.4773 6.08348 12.3941 6.04027 12.2963C5.99705 12.1985 5.9831 12.0902 6.00005 11.9846Z" stroke="#ABABAB" stroke-width="1.53846" stroke-linecap="round" stroke-linejoin="round"/>
</svg>
