<?xml version="1.0" encoding="utf-8"?>
<!-- Generator: Adobe Illustrator 27.2.0, SVG Export Plug-In . SVG Version: 6.00 Build 0)  -->
<svg version="1.1" id="Слой_1" xmlns="http://www.w3.org/2000/svg" xmlns:xlink="http://www.w3.org/1999/xlink" x="0px" y="0px"
	 viewBox="0 0 204.51 160.82" style="enable-background:new 0 0 204.51 160.82;" xml:space="preserve">
<style type="text/css">
	.st0{fill:#B24822;}
	.st1{fill:#DA5519;}
	.st2{fill:#FAC8AF;}
	.st3{fill:#D14E16;}
	.st4{fill:#ED6B1D;}
</style>
<g>
	<g>
		<g>
			<path class="st0" d="M171.87,90.04c-1.93-6.25,0.78-10.08,4.17-13.98l-2.33-10.62c-3.81-0.49-9.71-0.96-11.63-7.22
				c-1.93-6.25,1.14-11.26,4.82-15.49l-1.96-7.07L31.25,76.84l2.26,7.12c9.25,0.67,13.25,1.74,15.29,8.38
				c2.04,6.64-0.87,12.08-7.76,15.93l2.16,7.71c7.86,0.03,13.3,1.4,15.35,8.04c2.04,6.64-1.52,11.85-8.41,15.69l2.44,6.38l1.24,1.17
				l132.32-40.93l0.13-1.4l-2.19-7.86C178.85,96.28,173.8,96.3,171.87,90.04z"/>
			<path class="st1" d="M168.92,89.77c-1.93-6.25,0.98-9.73,7.12-13.71l-2.33-10.62c-7.32,0.16-12.65-1.23-14.58-7.49
				c-1.93-6.25,1.63-11.23,7.77-15.21l-1.96-7.07L31.25,76.84l2.26,7.12c7.86-0.7,14.3,1,16.34,7.65
				c2.04,6.64-1.91,12.82-8.81,16.66l2.16,7.71c7.7-1.22,14.41,0.8,16.45,7.44c2.04,6.64-2.62,12.45-9.52,16.3l2.44,6.38
				l133.69-41.17l-2.19-7.86C176.75,97.23,170.85,96.03,168.92,89.77z"/>
			<g>
				<g>
					<path class="st2" d="M59.1,87.49c2.89-0.89,5.79-1.78,8.68-2.67c6.91-2.13,13.82-4.25,20.72-6.38
						c8.35-2.57,16.71-5.15,25.06-7.72c7.26-2.24,14.52-4.47,21.78-6.71c3.5-1.08,7.13-1.97,10.56-3.25
						c0.05-0.02,0.1-0.03,0.16-0.05c1.53-0.47,0.88-2.89-0.66-2.41c-2.89,0.89-5.79,1.78-8.68,2.67
						c-6.91,2.13-13.82,4.25-20.72,6.38c-8.35,2.57-16.71,5.15-25.06,7.72c-7.26,2.24-14.52,4.47-21.78,6.71
						c-3.5,1.08-7.13,1.97-10.56,3.25c-0.05,0.02-0.1,0.03-0.16,0.05C56.9,85.56,57.56,87.97,59.1,87.49L59.1,87.49z"/>
				</g>
			</g>
			<g>
				<g>
					<path class="st2" d="M65.67,104.72c2.89-0.89,5.79-1.78,8.68-2.67c6.91-2.13,13.82-4.25,20.72-6.38
						c8.35-2.57,16.71-5.15,25.06-7.72c7.26-2.24,14.52-4.47,21.78-6.71c3.5-1.08,7.13-1.97,10.56-3.25
						c0.05-0.02,0.1-0.03,0.16-0.05c1.53-0.47,0.88-2.89-0.66-2.41c-2.89,0.89-5.79,1.78-8.68,2.67
						c-6.91,2.13-13.82,4.25-20.72,6.38c-8.35,2.57-16.71,5.15-25.06,7.72c-7.26,2.24-14.52,4.47-21.78,6.71
						c-3.5,1.08-7.13,1.97-10.56,3.25c-0.05,0.02-0.1,0.03-0.16,0.05C63.47,102.78,64.13,105.19,65.67,104.72L65.67,104.72z"/>
				</g>
			</g>
			<g>
				<g>
					<path class="st2" d="M70.61,121.41c2.89-0.89,5.79-1.78,8.68-2.67c6.91-2.13,13.82-4.25,20.72-6.38
						c8.35-2.57,16.71-5.15,25.06-7.72c7.26-2.24,14.52-4.47,21.78-6.71c3.5-1.08,7.13-1.97,10.56-3.25
						c0.05-0.02,0.1-0.03,0.16-0.05c1.53-0.47,0.88-2.89-0.66-2.41c-2.89,0.89-5.79,1.78-8.68,2.67
						c-6.91,2.13-13.82,4.25-20.72,6.38c-8.35,2.57-16.71,5.15-25.06,7.72c-7.26,2.24-14.52,4.47-21.78,6.71
						c-3.5,1.08-7.13,1.97-10.56,3.25c-0.05,0.02-0.1,0.03-0.16,0.05C68.41,119.47,69.06,121.89,70.61,121.41L70.61,121.41z"/>
				</g>
			</g>
		</g>
		<g>
			<path class="st3" d="M130.45,61.54c-2.54-5.07-0.78-8.72,1.55-12.54l-3.52-8.73c-3.32,0.13-8.43,0.57-10.97-4.49
				c-2.54-5.07-0.65-9.78,1.89-13.92l-2.69-5.76L8.44,70.47l2.95,5.76c7.99-0.75,11.57-0.42,14.27,4.96c2.7,5.38,1,10.45-4.34,14.72
				l2.95,6.28c6.71-1.1,11.56-0.71,14.26,4.67c2.7,5.38,0.41,10.34-4.93,14.61l3,5.1l1.22,0.82l107.14-53.97l-0.09-1.22l-3-6.4
				C137.31,65.87,132.99,66.61,130.45,61.54z"/>
			<path class="st4" d="M127.89,61.73c-2.54-5.07-0.56-8.45,4.11-12.73l-3.52-8.73c-6.23,1.19-10.99,0.77-13.53-4.3
				c-2.54-5.07-0.22-9.83,4.45-14.11l-2.69-5.76L8.44,70.47l2.95,5.76c6.62-1.73,12.36-1.2,15.06,4.18
				c2.7,5.38,0.21,11.22-5.13,15.5l2.95,6.28c6.4-2.14,12.42-1.39,15.12,3.99c2.7,5.38-0.45,11.01-5.79,15.29l3,5.1l108.27-54.37
				l-3-6.4C135.65,66.98,130.44,66.8,127.89,61.73z"/>
			<g>
				<g>
					<path class="st2" d="M33.93,75.66c7.97-4,15.93-8,23.9-12C70.44,57.33,83.05,51,95.66,44.67c2.91-1.46,5.81-2.92,8.72-4.38
						c1.44-0.72,0.17-2.88-1.26-2.16c-7.97,4-15.93,8-23.9,12C66.61,56.47,54,62.8,41.39,69.13c-2.91,1.46-5.81,2.92-8.72,4.38
						C31.23,74.23,32.5,76.39,33.93,75.66L33.93,75.66z"/>
				</g>
			</g>
			<g>
				<g>
					<path class="st2" d="M42.02,89.43c7.97-4,15.93-8,23.9-12c12.61-6.33,25.22-12.66,37.82-18.99c2.91-1.46,5.81-2.92,8.72-4.38
						c1.44-0.72,0.17-2.88-1.26-2.16c-7.97,4-15.93,8-23.9,12c-12.61,6.33-25.22,12.66-37.82,18.99c-2.91,1.46-5.81,2.92-8.72,4.38
						C39.32,87.99,40.58,90.15,42.02,89.43L42.02,89.43z"/>
				</g>
			</g>
			<g>
				<g>
					<path class="st2" d="M48.64,102.98c7.97-4,15.93-8,23.9-12c12.61-6.33,25.22-12.66,37.82-18.99c2.91-1.46,5.81-2.92,8.72-4.38
						c1.44-0.72,0.17-2.88-1.26-2.16c-7.97,4-15.93,8-23.9,12C81.31,83.78,68.7,90.12,56.09,96.45c-2.91,1.46-5.81,2.92-8.72,4.38
						C45.94,101.55,47.2,103.7,48.64,102.98L48.64,102.98z"/>
				</g>
			</g>
		</g>
	</g>
</g>
</svg>
