<?xml version="1.0" encoding="utf-8"?>
<!-- Generator: Adobe Illustrator 27.2.0, SVG Export Plug-In . SVG Version: 6.00 Build 0)  -->
<svg version="1.1" id="Слой_1" xmlns="http://www.w3.org/2000/svg" xmlns:xlink="http://www.w3.org/1999/xlink" x="0px" y="0px"
	 viewBox="0 0 758.3 160.82" style="enable-background:new 0 0 758.3 160.82;" xml:space="preserve">
<style type="text/css">
	.st0{fill:#B24822;}
	.st1{fill:#DA5519;}
	.st2{fill:#FAC8AF;}
	.st3{fill:#D14E16;}
	.st4{fill:#ED6B1D;}
	.st5{fill:#010202;}
</style>
<g>
	<g>
		<g>
			<path class="st0" d="M182.98,90.04c-1.93-6.25,0.78-10.08,4.17-13.98l-2.33-10.62c-3.81-0.49-9.71-0.96-11.63-7.22
				c-1.93-6.25,1.14-11.26,4.82-15.49l-1.96-7.07L42.35,76.84l2.26,7.12c9.25,0.67,13.25,1.74,15.29,8.38
				c2.04,6.64-0.87,12.08-7.76,15.93l2.16,7.71c7.86,0.03,13.3,1.4,15.35,8.04c2.04,6.64-1.52,11.85-8.41,15.69l2.44,6.38l1.24,1.17
				l132.32-40.93l0.13-1.4l-2.19-7.86C189.96,96.28,184.9,96.3,182.98,90.04z"/>
			<path class="st1" d="M180.03,89.77c-1.93-6.25,0.98-9.73,7.12-13.71l-2.33-10.62c-7.32,0.16-12.65-1.23-14.58-7.49
				c-1.93-6.25,1.63-11.23,7.77-15.21l-1.96-7.07L42.35,76.84l2.26,7.12c7.86-0.7,14.3,1,16.34,7.65
				c2.04,6.64-1.91,12.82-8.81,16.66l2.16,7.71c7.7-1.22,14.41,0.8,16.45,7.44c2.04,6.64-2.62,12.45-9.52,16.3l2.44,6.38
				l133.69-41.17l-2.19-7.86C187.86,97.23,181.96,96.03,180.03,89.77z"/>
			<g>
				<g>
					<path class="st2" d="M70.21,87.49c2.89-0.89,5.79-1.78,8.68-2.67c6.91-2.13,13.82-4.25,20.72-6.38
						c8.35-2.57,16.71-5.15,25.06-7.72c7.26-2.24,14.52-4.47,21.78-6.71c3.5-1.08,7.13-1.97,10.56-3.25
						c0.05-0.02,0.1-0.03,0.16-0.05c1.53-0.47,0.88-2.89-0.66-2.41c-2.89,0.89-5.79,1.78-8.68,2.67
						c-6.91,2.13-13.82,4.25-20.72,6.38c-8.35,2.57-16.71,5.15-25.06,7.72c-7.26,2.24-14.52,4.47-21.78,6.71
						c-3.5,1.08-7.13,1.97-10.56,3.25c-0.05,0.02-0.1,0.03-0.16,0.05C68.01,85.56,68.66,87.97,70.21,87.49L70.21,87.49z"/>
				</g>
			</g>
			<g>
				<g>
					<path class="st2" d="M76.78,104.72c2.89-0.89,5.79-1.78,8.68-2.67c6.91-2.13,13.82-4.25,20.72-6.38
						c8.35-2.57,16.71-5.15,25.06-7.72c7.26-2.24,14.52-4.47,21.78-6.71c3.5-1.08,7.13-1.97,10.56-3.25
						c0.05-0.02,0.1-0.03,0.16-0.05c1.53-0.47,0.88-2.89-0.66-2.41c-2.89,0.89-5.79,1.78-8.68,2.67
						c-6.91,2.13-13.82,4.25-20.72,6.38c-8.35,2.57-16.71,5.15-25.06,7.72c-7.26,2.24-14.52,4.47-21.78,6.71
						c-3.5,1.08-7.13,1.97-10.56,3.25c-0.05,0.02-0.1,0.03-0.16,0.05C74.58,102.78,75.23,105.19,76.78,104.72L76.78,104.72z"/>
				</g>
			</g>
			<g>
				<g>
					<path class="st2" d="M81.71,121.41c2.89-0.89,5.79-1.78,8.68-2.67c6.91-2.13,13.82-4.25,20.72-6.38
						c8.35-2.57,16.71-5.15,25.06-7.72c7.26-2.24,14.52-4.47,21.78-6.71c3.5-1.08,7.13-1.97,10.56-3.25
						c0.05-0.02,0.1-0.03,0.16-0.05c1.53-0.47,0.88-2.89-0.66-2.41c-2.89,0.89-5.79,1.78-8.68,2.67
						c-6.91,2.13-13.82,4.25-20.72,6.38c-8.35,2.57-16.71,5.15-25.06,7.72c-7.26,2.24-14.52,4.47-21.78,6.71
						c-3.5,1.08-7.13,1.97-10.56,3.25c-0.05,0.02-0.1,0.03-0.16,0.05C79.52,119.47,80.17,121.89,81.71,121.41L81.71,121.41z"/>
				</g>
			</g>
		</g>
		<g>
			<path class="st3" d="M141.56,61.54c-2.54-5.07-0.78-8.72,1.55-12.54l-3.52-8.73c-3.32,0.13-8.43,0.57-10.97-4.49
				c-2.54-5.07-0.65-9.78,1.89-13.92l-2.69-5.76L19.55,70.47l2.95,5.76c7.99-0.75,11.57-0.42,14.27,4.96
				c2.7,5.38,1,10.45-4.34,14.72l2.95,6.28c6.71-1.1,11.56-0.71,14.26,4.67c2.7,5.38,0.41,10.34-4.93,14.61l3,5.1l1.22,0.82
				l107.14-53.97l-0.09-1.22l-3-6.4C148.42,65.87,144.1,66.61,141.56,61.54z"/>
			<path class="st4" d="M139,61.73c-2.54-5.07-0.56-8.45,4.11-12.73l-3.52-8.73c-6.23,1.19-10.99,0.77-13.53-4.3
				c-2.54-5.07-0.22-9.83,4.45-14.11l-2.69-5.76L19.55,70.47l2.95,5.76c6.62-1.73,12.36-1.2,15.06,4.18
				c2.7,5.38,0.21,11.22-5.13,15.5l2.95,6.28c6.4-2.14,12.42-1.39,15.12,3.99c2.7,5.38-0.45,11.01-5.79,15.29l3,5.1l108.27-54.37
				l-3-6.4C146.76,66.98,141.54,66.8,139,61.73z"/>
			<g>
				<g>
					<path class="st2" d="M45.04,75.66c7.97-4,15.93-8,23.9-12C81.55,57.33,94.15,51,106.76,44.67c2.91-1.46,5.81-2.92,8.72-4.38
						c1.44-0.72,0.17-2.88-1.26-2.16c-7.97,4-15.93,8-23.9,12C77.71,56.47,65.11,62.8,52.5,69.13c-2.91,1.46-5.81,2.92-8.72,4.38
						C42.34,74.23,43.6,76.39,45.04,75.66L45.04,75.66z"/>
				</g>
			</g>
			<g>
				<g>
					<path class="st2" d="M53.13,89.43c7.97-4,15.93-8,23.9-12c12.61-6.33,25.22-12.66,37.82-18.99c2.91-1.46,5.81-2.92,8.72-4.38
						c1.44-0.72,0.17-2.88-1.26-2.16c-7.97,4-15.93,8-23.9,12C85.8,70.23,73.19,76.56,60.58,82.89c-2.91,1.46-5.81,2.92-8.72,4.38
						C50.43,87.99,51.69,90.15,53.13,89.43L53.13,89.43z"/>
				</g>
			</g>
			<g>
				<g>
					<path class="st2" d="M59.74,102.98c7.97-4,15.93-8,23.9-12c12.61-6.33,25.22-12.66,37.82-18.99c2.91-1.46,5.81-2.92,8.72-4.38
						c1.44-0.72,0.17-2.88-1.26-2.16c-7.97,4-15.93,8-23.9,12C92.42,83.78,79.81,90.12,67.2,96.45c-2.91,1.46-5.81,2.92-8.72,4.38
						C57.04,101.55,58.31,103.7,59.74,102.98L59.74,102.98z"/>
				</g>
			</g>
		</g>
	</g>
	<g>
		<path class="st5" d="M230.08,86.85h21.03v-6.58l-0.91-22.55v-0.95c0-1.56,0.11-3.13,0.33-4.69c0.3-1.92,1.45-3.02,3.46-3.29
			c0.25-0.03,0.49-0.04,0.74-0.04c1.59,0,2.7,0.84,3.33,2.51c0.77,2.14,1.26,4.29,1.48,6.46l0.41,6.13l0.29,6.17l2.43,39.96
			c0.05,0.71,0.08,1.36,0.08,1.93c0,0.85-0.06,1.58-0.16,2.18c-0.49,2.66-2.03,4.03-4.61,4.12h-0.21c-2.41,0-3.88-1.33-4.4-3.99
			l-0.37-3.04l-0.21-3.05l-0.29-4.94L252.31,98c-2.88-1.01-6.27-1.54-10.17-1.56l-5.19,0.12l-5.31,0.29l0.45,5.31l0.37,4.86
			l0.12,2.55l-0.21,2.55c-0.41,2.33-1.81,3.62-4.2,3.87c-0.19,0.03-0.38,0.04-0.58,0.04c-1.89,0-3.27-1.1-4.12-3.29l-0.45-1.73
			l-0.29-1.77c-1.26-7.74-2.02-16.76-2.26-27.08l-0.12-13.62l0.04-13.58l0.16-3.58c0.36-2.19,1.58-3.46,3.66-3.79
			c0.3-0.05,0.59-0.08,0.86-0.08c1.76,0,2.96,0.92,3.62,2.76c0.77,2.06,1.18,4.05,1.23,5.97l0.08,12.3L230.08,86.85z"/>
		<path class="st5" d="M308.97,113.02c-4.09,3.46-8.82,5.19-14.2,5.19c-1.07,0-2.17-0.07-3.29-0.21
			c-6.83-0.79-12.18-3.85-16.05-9.18c-6.2-8.5-9.3-17.04-9.3-25.6c0-4.88,1-9.77,3-14.65c4.36-10.62,12.65-17.41,24.86-20.37
			c1.51-0.36,2.99-0.54,4.44-0.54c4.69,0,9.08,1.88,13.17,5.64c7.87,7.3,12.22,16.87,13.05,28.73
			C323.26,95.06,318.03,105.39,308.97,113.02z M295.68,108.08c3.26,0,6.28-1.45,9.05-4.36c2.99-3.1,5.51-7.16,7.57-12.18
			c1.65-3.95,2.47-7.75,2.47-11.4c0-6.78-2.84-12.99-8.52-18.64c-2.41-2.41-5.2-3.62-8.35-3.62c-0.63,0-1.28,0.05-1.93,0.16
			c-6.01,0.91-11,3.95-14.98,9.14c-3.4,4.44-5.1,9.25-5.1,14.4c0,0.85,0.04,1.71,0.12,2.59c0.63,5.65,2.33,11.03,5.1,16.13
			c2.83,5.19,7.38,7.78,13.66,7.78H295.68z"/>
		<path class="st5" d="M377.7,98.99c0.47-0.3,0.91-0.45,1.32-0.45c0.82,0,1.44,0.73,1.85,2.18c0.22,0.71,0.33,1.41,0.33,2.1
			c0,2.06-0.89,4.13-2.67,6.21c-5.24,6.12-11.35,9.18-18.31,9.18c-2.77,0-5.68-0.48-8.73-1.44c-6.8-2.14-12.42-6.45-16.83-12.92
			c-4.06-5.95-6.09-12.19-6.09-18.72c0-0.55,0.01-1.11,0.04-1.69c0.58-10.48,4.17-19.4,10.78-26.75c2.74-3.05,5.86-5.41,9.34-7.08
			c2.77-1.32,5.46-1.98,8.07-1.98c4.09,0,7.93,1.66,11.52,4.98c2.19,2,3.98,3.86,5.35,5.56c1.37,1.73,2.06,3.28,2.06,4.65
			c0,1.18-0.52,2.22-1.56,3.13c-0.77,0.66-1.62,0.99-2.55,0.99c-1.4,0-2.98-0.78-4.73-2.35l-2.63-2.47l-2.63-2.47
			c-1.56-1.37-3.22-2.06-4.98-2.06c-1.32,0-2.69,0.4-4.12,1.19c-2.3,1.32-3.95,2.52-4.94,3.62c-6.01,6.64-9.01,13.94-9.01,21.89
			c0,1.18,0.07,2.39,0.21,3.62c0.69,6.28,3.79,11.65,9.3,16.09c3.76,3.04,7.48,4.57,11.15,4.57c3.15,0,6.28-1.12,9.38-3.38
			c3.24-2.36,5.49-3.96,6.75-4.82l1.19-0.7C377.32,99.25,377.7,99.02,377.7,98.99z"/>
		<path class="st5" d="M401.12,58.99l-5.97,0.45c-0.41,0.03-0.82,0.04-1.23,0.04c-1.76,0-3.43-0.19-5.02-0.58
			c-2.17-0.52-3.27-1.95-3.29-4.28c0-1.87,0.95-3.22,2.84-4.07c1.04-0.49,2.22-0.79,3.54-0.91l13.99-1.15l13.95-0.99l6.58,0.12
			l6.58,0.54c1.12,0.08,2.15,0.32,3.09,0.7c2.41,1.1,3.62,2.65,3.62,4.65c0,0.25-0.01,0.49-0.04,0.74c-0.33,2.22-2.04,3.46-5.14,3.7
			h-2.35l-2.39-0.08l-6.17-0.04l-6.17-0.04v0.95l0.12,0.74l0.58,31.69l0.45,21.15l-0.04,0.54c-0.3,3.46-1.87,5.24-4.69,5.35h-0.29
			c-2.85,0-4.46-1.65-4.81-4.94l-0.49-8.97l-0.82-43.87v-0.86l-0.17-1.24L401.12,58.99z"/>
		<path class="st5" d="M473.3,104.05c-4.2-0.38-7.96-0.58-11.28-0.58c-2.63,0-4.98,0.12-7.04,0.37c-0.66,0.8-1.28,1.83-1.85,3.09
			l-1.4,3.17c-1.15,2.52-2.61,4.17-4.36,4.94c-2.39-0.3-3.58-1.5-3.58-3.58c0-0.38,0.04-0.78,0.12-1.19l0.82-3.42l0.99-3.38
			l11.03-39.88l1.81-5.51l2.02-5.47c0.52-1.4,1.19-2.54,2.02-3.42c0.93-1.04,1.99-1.56,3.17-1.56c0.27,0,0.56,0.03,0.86,0.08
			c1.48,0.33,2.52,1.33,3.13,3l0.33,2.02c0.33,5.54,1.34,11.67,3.04,18.4l2.51,8.97l2.76,8.93l6.09,19.8
			c0.49,1.78,0.74,3.65,0.74,5.6v0.33c-0.06,2.14-1.1,3.29-3.13,3.46h-0.49c-1.48,0-2.66-0.44-3.54-1.32
			c-0.49-0.49-0.95-1.17-1.36-2.02l-0.91-2.39l-1.28-4.12L473.3,104.05z M470.01,93.97l-1.52-5.6l-1.52-5.39l-2.88-10.58l-0.74,0.12
			l-2.76,10.58l-2.84,10.86H470.01z"/>
		<path class="st5" d="M530.01,118.21c-0.93,0-1.6-0.42-2.02-1.28c-1.54-3.24-3.17-6.98-4.9-11.24l-4.57-11.52
			c-3.95-10.18-7.16-17.82-9.63-22.92l-4.49,16.46c-1.04,3.92-2.03,7.6-2.96,11.03c-1.21,4.39-2.22,8.04-3.05,10.95
			c-0.52,1.78-1.47,3.87-2.84,6.25c-0.88,1.51-1.96,2.26-3.25,2.26c-0.55,0-1.12-0.12-1.73-0.37c-1.01-0.88-1.52-2.25-1.52-4.12
			c0-0.69,0.07-1.43,0.21-2.22c1.87-11.44,5.34-26.04,10.41-43.79l3.79-13.83l0.37-1.44l0.49-1.44c0.41-1.04,1.01-1.82,1.81-2.35
			c1.21-0.8,2.32-1.19,3.33-1.19c1.59,0,2.94,1,4.03,3l0.82,1.93l0.7,1.98c2.3,6.23,5.77,15.47,10.41,27.74l5.27,13.95l5.19,13.83
			c0.27,0.74,0.41,1.47,0.41,2.18c0,1.21-0.38,2.36-1.15,3.46c-1.23,1.78-2.92,2.67-5.06,2.67H530.01z"/>
		<path class="st5" d="M557.63,73.8l5.97,0.37c7.35,0.6,13.1,3.61,17.24,9.01c3.4,4.44,5.28,9.71,5.64,15.8
			c0.03,0.36,0.04,0.7,0.04,1.03c0,4.53-1.87,8.25-5.6,11.15c-6.04,4.69-12.8,7.04-20.29,7.04c-3.92,0-8.05-0.64-12.39-1.93
			c-3.27-0.96-4.99-3.55-5.19-7.78l-0.78-15.14l-0.82-15.19c-0.27-6.26-0.58-14.45-0.91-24.57l0.21-1.52
			c0.55-2.88,1.95-4.38,4.2-4.49h0.29c2,0,3.39,1.19,4.16,3.58c0.58,1.84,0.92,3.68,1.03,5.51c0.08,1.54,0.15,3.14,0.21,4.81
			l0.04,2.22l0.08,2.63l0.21,3.38l0.25,3.7L557.63,73.8z M552.53,95.7l0.41,11.11c2.17,0.82,4.55,1.23,7.16,1.23
			c1.29,0,2.63-0.1,4.03-0.29c4.2-0.58,7.48-1.82,9.84-3.75c1.65-1.32,2.47-3.05,2.47-5.19c0-0.22-0.01-0.45-0.04-0.7
			c-0.66-8.34-4.95-13.02-12.88-14.03c-1.21-0.14-2.7-0.21-4.49-0.21h-0.91l-2.92,0.08l-3.13,0.04L552.53,95.7z"/>
		<path class="st5" d="M631.05,58.04c-0.25,0.38-2.11,0.58-5.6,0.58c-1.59,0-3.5-0.04-5.72-0.12l-4.61-0.17l-4.73-0.04
			c-3.57,0-6.43,0.15-8.6,0.45l-0.21,1.56l-0.08,1.52l1.48,49.47v1.65c-0.25,2.99-1.58,4.71-3.99,5.14
			c-0.47,0.08-0.89,0.12-1.28,0.12c-2.2,0-3.61-1.19-4.24-3.58c-0.93-3.68-1.43-7.23-1.48-10.66l-0.25-21.24l-0.16-21.2l-0.45-5.72
			c-0.05-0.47-0.08-0.93-0.08-1.4c0-1.89,0.52-3.48,1.56-4.77c0.63-0.77,1.45-1.22,2.47-1.36l2.55-0.37l2.84-0.16
			c7.35,0.11,13.43,0.3,18.23,0.58c2.55,0.16,5.04,0.6,7.45,1.32c3.46,1.04,5.19,3.09,5.19,6.13
			C631.34,56.46,631.24,57.22,631.05,58.04z"/>
		<path class="st5" d="M666.2,78.45l-2.67,4.61l-5.39,10.12l-5.39,10.08c-1.32,2.39-3.14,5.25-5.47,8.6
			c-1.37,1.95-2.96,2.92-4.77,2.92c-0.41,0-0.85-0.05-1.32-0.16c-2.52-0.6-3.87-2.54-4.03-5.8l-1.85-40.74
			c-0.08-2.22-0.12-4.57-0.12-7.04c0-2,0.03-4.09,0.08-6.26c0.05-2.17,0.4-3.79,1.03-4.86c0.33-0.58,0.85-1.1,1.56-1.56
			c0.71-0.47,1.37-0.7,1.98-0.7s1.28,0.25,2.02,0.74c0.71,0.47,1.21,0.99,1.48,1.56c0.66,1.4,1.04,3.38,1.15,5.93l1.15,33.13
			l0.08,2.06l0.17,2.35c0.91-0.41,1.63-1.08,2.18-2.02l0.62-1.19l0.62-1.19l20.78-35.06c1.04-1.75,2.1-3.06,3.17-3.91
			c1.04-0.8,2.1-1.19,3.17-1.19c0.63,0,1.26,0.14,1.89,0.41c1.76,0.74,2.74,2.13,2.96,4.16l-0.04,3.54l-0.37,3.54l-1.69,17.78
			c-0.22,2.58-0.33,5.28-0.33,8.11c0,6.64,0.63,13.92,1.89,21.85c0.33,2.11,0.49,3.96,0.49,5.56c-0.03,2.11-1.1,3.48-3.21,4.12
			c-0.58,0.19-1.11,0.29-1.61,0.29c-1.56,0-2.73-0.88-3.5-2.63c-0.88-2.03-1.51-4.31-1.89-6.83c-1.56-10.04-2.35-19.11-2.35-27.2
			c0-2.66,0.08-5.21,0.25-7.65L666.2,78.45z"/>
		<path class="st5" d="M727.93,118.08c-3.02-0.82-4.53-2.94-4.53-6.34v-0.29l0.08-5.8l-0.04-6.05h-13.58l-1.48,1.69l-1.61,1.81
			l-3.42,3.79c-0.69,0.8-1.36,1.54-2.02,2.22l-2.43,2.67c-2.03,2.17-3.57,3.76-4.61,4.77l-0.33,0.33c-0.96,0.88-1.93,1.32-2.92,1.32
			c-0.91,0-1.81-0.34-2.72-1.03c-1.23-0.93-1.85-2-1.85-3.21c0-0.71,0.21-1.47,0.62-2.26c0.49-0.93,1.59-2.43,3.29-4.49l2.02-2.43
			c0.74-0.88,1.26-1.51,1.56-1.89l2.84-3.58l1.56-1.93l1.77-2.14l-1.6-1.03l-1.48-1.03c-4.53-3.62-7.22-8.75-8.07-15.39
			c-0.11-0.93-0.17-1.84-0.17-2.72c0-3.79,1.15-6.98,3.46-9.59c10.48-11.85,22.21-17.78,35.19-17.78h0.29
			c4.8,0.05,7.2,2.44,7.2,7.16l-0.29,19.38l-0.45,19.38l-0.49,12.55l-0.66,6.79C732.69,116.03,730.97,117.73,727.93,118.08z
			 M725.29,57.26c-9.49,1.81-17.45,6.04-23.87,12.67c-1.78,1.87-2.68,3.9-2.68,6.09c0,1.89,0.64,3.91,1.93,6.05
			c1.56,2.58,3.96,4.49,7.2,5.72c3.13,1.18,6.27,1.77,9.42,1.77c2.41,0,4.84-0.34,7.29-1.03c0.55-4.12,0.82-9.22,0.82-15.31
			l-0.08-7.86L725.29,57.26z"/>
	</g>
</g>
</svg>
