<svg width="22" height="23" viewBox="0 0 22 23" fill="none" xmlns="http://www.w3.org/2000/svg">
<path d="M13.3076 6.11525V4.57679C13.3076 4.16876 13.1455 3.77745 12.857 3.48893C12.5685 3.20042 12.1772 3.03833 11.7692 3.03833H10.2307" stroke="#ABABAB" stroke-width="1.5" stroke-linecap="round" stroke-linejoin="round"/>
<path d="M6.38462 16.8845H2.53846C2.13043 16.8845 1.73912 16.7223 1.4506 16.4339C1.16209 16.1454 1 15.7541 1 15.346V4.57679C1 4.16876 1.16209 3.77745 1.4506 3.48893C1.73912 3.20042 2.13043 3.03833 2.53846 3.03833H4.07692" stroke="#ABABAB" stroke-width="1.5" stroke-linecap="round" stroke-linejoin="round"/>
<path d="M19.4615 9.19238H11.7692C10.9195 9.19238 10.2307 9.88118 10.2307 10.7308V19.9616C10.2307 20.8113 10.9195 21.5001 11.7692 21.5001H19.4615C20.3112 21.5001 20.9999 20.8113 20.9999 19.9616V10.7308C20.9999 9.88118 20.3112 9.19238 19.4615 9.19238Z" stroke="#ABABAB" stroke-width="1.5" stroke-linecap="round" stroke-linejoin="round"/>
<path d="M10.6155 1.5H3.69238L4.32315 3.99231C4.36158 4.15912 4.45563 4.30789 4.58984 4.41414C4.72406 4.52038 4.89043 4.5778 5.06161 4.57692H9.24623C9.41741 4.5778 9.58378 4.52038 9.718 4.41414C9.85221 4.30789 9.94626 4.15912 9.98469 3.99231L10.6155 1.5Z" stroke="#ABABAB" stroke-width="1.5" stroke-linecap="round" stroke-linejoin="round"/>
<path d="M13.3076 13.8076H17.923" stroke="#ABABAB" stroke-width="1.5" stroke-linecap="round" stroke-linejoin="round"/>
<path d="M13.3076 16.8845H17.923" stroke="#ABABAB" stroke-width="1.5" stroke-linecap="round" stroke-linejoin="round"/>
</svg>
