<svg width="22" height="23" viewBox="0 0 22 23" fill="none" xmlns="http://www.w3.org/2000/svg">
<path d="M13.3076 6.11537V4.57691C13.3076 4.16888 13.1455 3.77758 12.857 3.48905C12.5685 3.20054 12.1772 3.03845 11.7692 3.03845H10.2307" stroke="#3E3E3E" stroke-width="1.5" stroke-linecap="round" stroke-linejoin="round"/>
<path d="M6.38462 16.8846H2.53846C2.13043 16.8846 1.73912 16.7225 1.4506 16.434C1.16209 16.1455 1 15.7542 1 15.3461V4.57691C1 4.16888 1.16209 3.77758 1.4506 3.48905C1.73912 3.20054 2.13043 3.03845 2.53846 3.03845H4.07692" stroke="#3E3E3E" stroke-width="1.5" stroke-linecap="round" stroke-linejoin="round"/>
<path d="M19.4615 9.19232H11.7692C10.9195 9.19232 10.2307 9.88112 10.2307 10.7308V19.9616C10.2307 20.8112 10.9195 21.5 11.7692 21.5H19.4615C20.3112 21.5 20.9999 20.8112 20.9999 19.9616V10.7308C20.9999 9.88112 20.3112 9.19232 19.4615 9.19232Z" stroke="#3E3E3E" stroke-width="1.5" stroke-linecap="round" stroke-linejoin="round"/>
<path d="M10.6153 1.5H3.69226L4.32303 3.99231C4.36146 4.15912 4.45551 4.30789 4.58972 4.41414C4.72394 4.52038 4.89031 4.5778 5.06149 4.57692H9.24611C9.41729 4.5778 9.58366 4.52038 9.71788 4.41414C9.85209 4.30789 9.94614 4.15912 9.98457 3.99231L10.6153 1.5Z" stroke="#3E3E3E" stroke-width="1.5" stroke-linecap="round" stroke-linejoin="round"/>
<path d="M13.3077 13.8077H17.9231" stroke="#3E3E3E" stroke-width="1.5" stroke-linecap="round" stroke-linejoin="round"/>
<path d="M13.3077 16.8846H17.9231" stroke="#3E3E3E" stroke-width="1.5" stroke-linecap="round" stroke-linejoin="round"/>
</svg>
