<svg width="22" height="22" viewBox="0 0 22 22" fill="none" xmlns="http://www.w3.org/2000/svg">
<path d="M3.30933 20.9975V17.1523H7.15453" stroke="#ABABAB" stroke-width="1.55039" stroke-linecap="round" stroke-linejoin="round"/>
<path d="M20.8277 9.16284C21.7845 14.2507 18.671 19.2949 13.5875 20.6569C9.69688 21.6994 5.7271 20.297 3.30933 17.3916" stroke="#ABABAB" stroke-width="1.55039" stroke-linecap="round" stroke-linejoin="round"/>
<path d="M1.17224 12.8372C0.215491 7.74931 3.32906 2.70523 8.41247 1.34314C12.3029 0.30071 16.2724 1.70278 18.6902 4.60781" stroke="#ABABAB" stroke-width="1.55039" stroke-linecap="round" stroke-linejoin="round"/>
<path d="M18.6904 1.00244V4.84765H14.8451" stroke="#ABABAB" stroke-width="1.55039" stroke-linecap="round" stroke-linejoin="round"/>
<path d="M10.9999 10.2249C12.0703 10.2249 12.9379 9.35719 12.9379 8.28687C12.9379 7.21654 12.0703 6.34888 10.9999 6.34888C9.92962 6.34888 9.06195 7.21654 9.06195 8.28687C9.06195 9.35719 9.92962 10.2249 10.9999 10.2249Z" stroke="#ABABAB" stroke-width="1.55039"/>
<path d="M7.44647 14.8759C8.04458 13.507 9.41054 12.5503 10.9999 12.5503C12.5893 12.5503 13.9553 13.507 14.5534 14.8759" stroke="#ABABAB" stroke-width="1.55039" stroke-linecap="round"/>
</svg>
