<svg width="22" height="17" viewBox="0 0 22 17" fill="none" xmlns="http://www.w3.org/2000/svg">
<path d="M19.68 1H2.32C1.59098 1 1 1.59098 1 2.32V14.2462C1 14.9752 1.59098 15.5662 2.32 15.5662H19.68C20.409 15.5662 21 14.9752 21 14.2462V2.32C21 1.59098 20.409 1 19.68 1Z" stroke="#ABABAB" stroke-width="1.53846" stroke-linecap="round" stroke-linejoin="round"/>
<path d="M14.6298 6.55908H17.6865" stroke="#ABABAB" stroke-width="1.53846" stroke-linecap="round" stroke-linejoin="round"/>
<path d="M14.6298 9.58838H17.6865" stroke="#ABABAB" stroke-width="1.53846" stroke-linecap="round" stroke-linejoin="round"/>
<path d="M5.62646 7.0641C5.62646 8.45824 6.75663 9.58841 8.15077 9.58841C8.50322 9.58841 8.83879 9.51618 9.1435 9.38572C10.0441 9.0001 10.6751 8.10579 10.6751 7.0641C10.6751 5.66996 9.54491 4.53979 8.15077 4.53979C6.75663 4.53979 5.62646 5.66996 5.62646 7.0641Z" stroke="#ABABAB" stroke-width="1.53846" stroke-linecap="round" stroke-linejoin="round"/>
<path d="M4.31354 12.0882C4.71465 11.3252 5.27838 10.6947 5.95055 10.2572C6.62272 9.81964 7.38072 9.58984 8.15168 9.58984C8.92265 9.58984 9.68065 9.81964 10.3528 10.2572C11.025 10.6947 11.5887 11.3252 11.9898 12.0882" stroke="#ABABAB" stroke-width="1.53846" stroke-linecap="round" stroke-linejoin="round"/>
</svg>
