<svg width="22" height="17" viewBox="0 0 22 17" fill="none" xmlns="http://www.w3.org/2000/svg">
<path d="M19.68 1H2.32C1.59098 1 1 1.59098 1 2.32V14.2462C1 14.9752 1.59098 15.5662 2.32 15.5662H19.68C20.409 15.5662 21 14.9752 21 14.2462V2.32C21 1.59098 20.409 1 19.68 1Z" stroke="black" stroke-width="1.53846" stroke-linecap="round" stroke-linejoin="round"/>
<path d="M14.6298 6.55908H17.6865" stroke="black" stroke-width="1.53846" stroke-linecap="round" stroke-linejoin="round"/>
<path d="M14.6298 9.5885H17.6865" stroke="black" stroke-width="1.53846" stroke-linecap="round" stroke-linejoin="round"/>
<path d="M5.62646 7.06416C5.62646 8.4583 6.75663 9.58847 8.15077 9.58847C8.50322 9.58847 8.83879 9.51624 9.1435 9.38578C10.0441 9.00016 10.6751 8.10586 10.6751 7.06416C10.6751 5.67003 9.54491 4.53986 8.15077 4.53986C6.75663 4.53986 5.62646 5.67003 5.62646 7.06416Z" stroke="black" stroke-width="1.53846" stroke-linecap="round" stroke-linejoin="round"/>
<path d="M4.31354 12.0881C4.71465 11.3252 5.27838 10.6946 5.95055 10.2571C6.62272 9.81958 7.38072 9.58978 8.15168 9.58978C8.92265 9.58978 9.68065 9.81958 10.3528 10.2571C11.025 10.6946 11.5887 11.3252 11.9898 12.0881" stroke="black" stroke-width="1.53846" stroke-linecap="round" stroke-linejoin="round"/>
</svg>
