<svg width="184" height="59" viewBox="0 0 184 59" fill="none" xmlns="http://www.w3.org/2000/svg">
<g clip-path="url(#clip0_974_1599)">
<rect x="16.7136" width="5.24407" height="40.2046" fill="#3622F5"/>
<rect x="1" y="40.2046" width="5.24407" height="19.2283" transform="rotate(-90 1 40.2046)" fill="#3622F5"/>
<rect x="23.7058" y="5.24406" width="5.24407" height="20.1023" transform="rotate(-90 23.7058 5.24406)" fill="#E60029"/>
<rect x="23.7058" y="22.7243" width="5.24407" height="20.1023" transform="rotate(-90 23.7058 22.7243)" fill="#E60029"/>
<rect x="23.7058" y="40.2046" width="5.24407" height="20.1023" transform="rotate(-90 23.7058 40.2046)" fill="#E60029"/>
<rect x="23.7058" width="5.24407" height="40.2046" fill="#E60029"/>
</g>
<path d="M59.9076 40.3258C59.0183 40.3258 58.1963 40.1911 57.4418 39.9216C56.7007 39.6521 56.0404 39.2681 55.461 38.7695C54.8951 38.2575 54.4235 37.6646 54.0462 36.9909L55.9461 35.9197C56.2156 36.4317 56.5525 36.8629 56.9567 37.2132C57.3609 37.5636 57.8123 37.8331 58.3109 38.0217C58.8229 38.1969 59.3551 38.2844 59.9076 38.2844C60.6083 38.2844 61.2483 38.1497 61.8277 37.8802C62.4071 37.5973 62.9057 37.2132 63.3234 36.7281C63.7411 36.2431 64.051 35.6906 64.2531 35.0708C64.4687 34.4375 64.5698 33.7772 64.5563 33.09L65.5265 33.757H58.6343V31.9986H65.4658L64.5563 32.605C64.5428 31.9986 64.4283 31.4125 64.2127 30.8465C63.9971 30.2671 63.6939 29.7551 63.3032 29.3105C62.9124 28.8523 62.4341 28.4885 61.8681 28.219C61.3022 27.9495 60.6487 27.8148 59.9076 27.8148C59.3821 27.8148 58.8701 27.9024 58.3715 28.0775C57.8864 28.2392 57.4485 28.4953 57.0578 28.8456C56.667 29.1824 56.3436 29.6069 56.0876 30.1189L54.2483 28.9062C54.8008 27.99 55.5351 27.2421 56.4514 26.6627C57.3677 26.0698 58.5197 25.7734 59.9076 25.7734C61.026 25.7734 62.0164 25.9823 62.8787 26.4C63.7546 26.8042 64.4889 27.3499 65.0818 28.0371C65.6881 28.7108 66.1463 29.4789 66.4562 30.3413C66.7661 31.2036 66.9211 32.0929 66.9211 33.0092C66.9211 33.9659 66.7526 34.8821 66.4158 35.758C66.0924 36.6338 65.6208 37.4153 65.0009 38.1025C64.3811 38.7897 63.64 39.3355 62.7777 39.7397C61.9288 40.1304 60.9721 40.3258 59.9076 40.3258ZM69.2831 40.2046V25.8543H71.5469V31.8571H73.2244L77.7316 25.8543H80.3187L75.0435 32.8071L80.7027 40.2046H77.9337L73.2244 33.9389H71.5469V40.2046H69.2831ZM81.0449 32.9283C81.0449 32.0525 81.1999 31.1969 81.5098 30.3615C81.8197 29.5126 82.2711 28.7445 82.864 28.0573C83.4703 27.3567 84.2047 26.8042 85.0671 26.4C85.9294 25.9823 86.9063 25.7734 87.9977 25.7734C89.2913 25.7734 90.4097 26.0698 91.3529 26.6627C92.2961 27.2421 92.9968 27.99 93.4549 28.9062L91.6763 30.0987C91.4068 29.5193 91.0632 29.0612 90.6455 28.7243C90.2412 28.3875 89.7966 28.1517 89.3115 28.0169C88.8399 27.8822 88.375 27.8148 87.9169 27.8148C87.1623 27.8148 86.5021 27.9697 85.9362 28.2797C85.3702 28.5761 84.8919 28.9736 84.5011 29.4722C84.1238 29.9707 83.8341 30.5299 83.632 31.1497C83.4434 31.7695 83.3491 32.3894 83.3491 33.0092C83.3491 33.6964 83.4636 34.3634 83.6927 35.0102C83.9217 35.6435 84.2384 36.2094 84.6426 36.7079C85.0603 37.193 85.5521 37.577 86.1181 37.86C86.684 38.143 87.3038 38.2844 87.9775 38.2844C88.4357 38.2844 88.914 38.2036 89.4126 38.0419C89.9111 37.8802 90.3693 37.6309 90.787 37.2941C91.2181 36.9437 91.555 36.4856 91.7975 35.9197L93.6772 36.9909C93.3808 37.705 92.9159 38.3114 92.2826 38.81C91.6628 39.3085 90.9621 39.6858 90.1806 39.9418C89.4126 40.1978 88.6513 40.3258 87.8967 40.3258C86.8861 40.3258 85.9631 40.117 85.1277 39.6993C84.2923 39.2681 83.5714 38.7022 82.965 38.0015C82.3587 37.2873 81.8871 36.4923 81.5502 35.6165C81.2134 34.7272 81.0449 33.8311 81.0449 32.9283ZM95.7912 40.2046V25.8543H107.13V40.2046H104.846V27.8552H98.055V40.2046H95.7912ZM110.377 40.2046V25.8543H116.4C117.047 25.8543 117.64 25.989 118.179 26.2585C118.718 26.528 119.189 26.8851 119.594 27.3297C119.998 27.7744 120.308 28.2729 120.523 28.8254C120.739 29.3778 120.847 29.9438 120.847 30.5232C120.847 31.3182 120.665 32.0795 120.301 32.8071C119.951 33.5212 119.445 34.1006 118.785 34.5453C118.138 34.9899 117.384 35.2123 116.521 35.2123H112.641V40.2046H110.377ZM112.641 33.2113H116.38C116.811 33.2113 117.188 33.0968 117.512 32.8677C117.835 32.6252 118.085 32.3018 118.26 31.8976C118.448 31.4933 118.543 31.0352 118.543 30.5232C118.543 29.9977 118.435 29.5328 118.219 29.1286C118.004 28.7243 117.721 28.4144 117.37 28.1988C117.034 27.9697 116.663 27.8552 116.259 27.8552H112.641V33.2113ZM132.813 38.2036V40.2046H122.97V25.8543H132.631V27.8552H125.234V31.938H131.641V33.8177H125.234V38.2036H132.813ZM133.982 32.9283C133.982 32.0525 134.137 31.1969 134.447 30.3615C134.757 29.5126 135.208 28.7445 135.801 28.0573C136.408 27.3567 137.142 26.8042 138.004 26.4C138.867 25.9823 139.844 25.7734 140.935 25.7734C142.229 25.7734 143.347 26.0698 144.29 26.6627C145.233 27.2421 145.934 27.99 146.392 28.9062L144.614 30.0987C144.344 29.5193 144 29.0612 143.583 28.7243C143.179 28.3875 142.734 28.1517 142.249 28.0169C141.777 27.8822 141.312 27.8148 140.854 27.8148C140.1 27.8148 139.439 27.9697 138.873 28.2797C138.307 28.5761 137.829 28.9736 137.438 29.4722C137.061 29.9707 136.771 30.5299 136.569 31.1497C136.381 31.7695 136.286 32.3894 136.286 33.0092C136.286 33.6964 136.401 34.3634 136.63 35.0102C136.859 35.6435 137.176 36.2094 137.58 36.7079C137.998 37.193 138.489 37.577 139.055 37.86C139.621 38.143 140.241 38.2844 140.915 38.2844C141.373 38.2844 141.851 38.2036 142.35 38.0419C142.848 37.8802 143.307 37.6309 143.724 37.2941C144.155 36.9437 144.492 36.4856 144.735 35.9197L146.614 36.9909C146.318 37.705 145.853 38.3114 145.22 38.81C144.6 39.3085 143.899 39.6858 143.118 39.9418C142.35 40.1978 141.589 40.3258 140.834 40.3258C139.823 40.3258 138.9 40.117 138.065 39.6993C137.23 39.2681 136.509 38.7022 135.902 38.0015C135.296 37.2873 134.824 36.4923 134.487 35.6165C134.151 34.7272 133.982 33.8311 133.982 32.9283ZM147.621 32.9283C147.621 32.0525 147.776 31.1969 148.086 30.3615C148.396 29.5126 148.847 28.7445 149.44 28.0573C150.047 27.3567 150.781 26.8042 151.643 26.4C152.506 25.9823 153.483 25.7734 154.574 25.7734C155.868 25.7734 156.986 26.0698 157.929 26.6627C158.872 27.2421 159.573 27.99 160.031 28.9062L158.252 30.0987C157.983 29.5193 157.639 29.0612 157.222 28.7243C156.817 28.3875 156.373 28.1517 155.888 28.0169C155.416 27.8822 154.951 27.8148 154.493 27.8148C153.739 27.8148 153.078 27.9697 152.512 28.2797C151.946 28.5761 151.468 28.9736 151.077 29.4722C150.7 29.9707 150.41 30.5299 150.208 31.1497C150.02 31.7695 149.925 32.3894 149.925 33.0092C149.925 33.6964 150.04 34.3634 150.269 35.0102C150.498 35.6435 150.815 36.2094 151.219 36.7079C151.637 37.193 152.128 37.577 152.694 37.86C153.26 38.143 153.88 38.2844 154.554 38.2844C155.012 38.2844 155.49 38.2036 155.989 38.0419C156.487 37.8802 156.945 37.6309 157.363 37.2941C157.794 36.9437 158.131 36.4856 158.374 35.9197L160.253 36.9909C159.957 37.705 159.492 38.3114 158.859 38.81C158.239 39.3085 157.538 39.6858 156.757 39.9418C155.989 40.1978 155.227 40.3258 154.473 40.3258C153.462 40.3258 152.539 40.117 151.704 39.6993C150.868 39.2681 150.148 38.7022 149.541 38.0015C148.935 37.2873 148.463 36.4923 148.126 35.6165C147.79 34.7272 147.621 33.8311 147.621 32.9283Z" fill="black"/>
<path d="M0.81523 56.2541L1.11291 54.7964C1.33874 54.7964 1.5372 54.7417 1.70828 54.6322C1.88621 54.5227 2.05045 54.3345 2.201 54.0676C2.3584 53.8007 2.51238 53.4312 2.66293 52.959C2.82033 52.48 2.99141 51.8743 3.17618 51.1421L3.73049 48.9043H8.79113L7.25138 56.1925H5.56792L6.79972 50.3825H4.98282L4.67487 51.6348C4.44219 52.5518 4.20952 53.3114 3.97685 53.9136C3.75102 54.5159 3.49439 54.988 3.20697 55.3302C2.9264 55.6655 2.59107 55.9051 2.201 56.0488C1.81778 56.1856 1.35585 56.2541 0.81523 56.2541ZM8.60853 56.1925L9.74794 50.8034H11.3903L10.9695 52.7845H12.2834L11.9652 54.1805H10.6718L10.2509 56.1925H8.60853ZM14.0695 56.2951C13.4604 56.2951 12.9575 56.1651 12.5605 55.9051C12.1705 55.645 11.8899 55.3028 11.7188 54.8786C11.5546 54.4543 11.5067 53.9958 11.5751 53.503C11.6299 53.1335 11.7428 52.7811 11.9139 52.4458C12.0918 52.1036 12.321 51.8025 12.6016 51.5424C12.889 51.2824 13.2209 51.0771 13.5973 50.9265C13.9805 50.776 14.398 50.7007 14.8496 50.7007C15.4587 50.7007 15.9583 50.8307 16.3483 51.0908C16.7452 51.3508 17.0258 51.693 17.1901 52.1173C17.3611 52.5416 17.4125 53.0035 17.344 53.503C17.2961 53.8726 17.1832 54.225 17.0053 54.5603C16.8342 54.8957 16.605 55.1933 16.3175 55.4534C16.037 55.7134 15.7085 55.9187 15.3321 56.0693C14.9557 56.2198 14.5348 56.2951 14.0695 56.2951ZM14.2645 54.9915C14.4288 54.9915 14.5896 54.9573 14.747 54.8888C14.9112 54.8135 15.0584 54.7109 15.1884 54.5809C15.3184 54.444 15.4279 54.2832 15.5169 54.0984C15.6058 53.9136 15.664 53.7152 15.6914 53.503C15.7324 53.2088 15.7119 52.9487 15.6298 52.7229C15.5545 52.4971 15.4313 52.3226 15.2602 52.1994C15.0892 52.0762 14.8907 52.0146 14.6649 52.0146C14.4938 52.0146 14.3295 52.0523 14.1722 52.1275C14.0148 52.196 13.8676 52.2952 13.7308 52.4252C13.6007 52.5552 13.4912 52.7126 13.4023 52.8974C13.3202 53.0753 13.262 53.2772 13.2278 53.503C13.1936 53.7973 13.2141 54.0574 13.2894 54.2832C13.3715 54.5022 13.4981 54.6767 13.6692 54.8067C13.8403 54.9299 14.0387 54.9915 14.2645 54.9915ZM20.709 56.2951C19.751 56.2951 19.0598 56.0111 18.6355 55.4431C18.2112 54.8683 18.0915 54.0539 18.2762 53.0001C18.4405 52.1036 18.6731 51.3748 18.9742 50.8136C19.2822 50.2525 19.6654 49.8248 20.1239 49.5305C20.5893 49.2362 21.1367 49.0378 21.7663 48.9351C21.9853 48.8872 22.194 48.8496 22.3925 48.8222C22.5978 48.7948 22.7791 48.7538 22.9365 48.699C23.0939 48.6374 23.2068 48.5382 23.2753 48.4013L24.3531 48.8427C24.2778 49.1781 24.1581 49.4347 23.9938 49.6126C23.8296 49.7905 23.5901 49.924 23.2753 50.0129C22.9673 50.1019 22.5567 50.1806 22.0435 50.249C21.6055 50.3106 21.2497 50.4133 20.9759 50.557C20.7022 50.6939 20.4798 50.8855 20.3087 51.1318C20.1445 51.3782 19.9973 51.693 19.8673 52.0762C20.0931 51.8162 20.3737 51.6109 20.709 51.4603C21.0444 51.3029 21.4242 51.2242 21.8484 51.2242C22.3138 51.2242 22.7073 51.3269 23.0289 51.5322C23.3506 51.7375 23.5866 52.0215 23.7372 52.3842C23.8878 52.74 23.9288 53.154 23.8604 53.6262C23.7919 54.1326 23.6209 54.5877 23.3471 54.9915C23.0802 55.3952 22.7244 55.7134 22.2796 55.9461C21.8348 56.1788 21.3112 56.2951 20.709 56.2951ZM20.8322 54.9915C21.1812 54.9915 21.4755 54.8786 21.715 54.6527C21.9614 54.4201 22.1119 54.1189 22.1667 53.7494C22.2146 53.3936 22.1496 53.1027 21.9716 52.8769C21.8005 52.6442 21.5405 52.5279 21.1915 52.5279C20.9725 52.5279 20.7672 52.5826 20.5756 52.6921C20.384 52.7948 20.2266 52.9385 20.1034 53.1232C19.9802 53.3012 19.9015 53.5099 19.8673 53.7494C19.8262 53.9889 19.8399 54.2045 19.9084 54.3961C19.9768 54.5809 20.0897 54.728 20.2471 54.8375C20.4045 54.9401 20.5995 54.9915 20.8322 54.9915ZM24.0012 56.1925C24.2749 55.296 24.6821 54.3961 25.2227 53.4928C25.7702 52.5826 26.4272 51.6861 27.1936 50.8034H28.8873L29.5648 56.1925H27.8608L27.635 52.1994C27.3887 52.5758 27.1662 52.9248 26.9678 53.2464C26.7762 53.5681 26.6017 53.8863 26.4443 54.2011C26.2937 54.509 26.15 54.8272 26.0131 55.1557C25.8763 55.4773 25.7394 55.8229 25.6025 56.1925H24.0012ZM31.6981 56.2951C30.8564 56.2951 30.4355 55.864 30.4355 55.0017C30.4355 54.8854 30.4424 54.7691 30.456 54.6527C30.4766 54.5295 30.5005 54.3961 30.5279 54.2524L31.267 50.8034H32.8991L32.2421 53.8931C32.2079 54.0437 32.1908 54.1771 32.1908 54.2935C32.1908 54.7041 32.3619 54.9094 32.7041 54.9094C32.8341 54.9094 32.9641 54.8854 33.0941 54.8375C33.2242 54.7827 33.361 54.6972 33.5047 54.5809C33.6485 54.4645 33.7887 54.314 33.9256 54.1292L34.6339 50.8034H36.2763L35.5269 54.3448C35.5201 54.3858 35.5133 54.4235 35.5064 54.4577C35.4996 54.4919 35.4962 54.5261 35.4962 54.5603C35.4962 54.7177 35.5851 54.7999 35.763 54.8067L35.4654 56.1925C35.3148 56.2198 35.1814 56.2404 35.065 56.2541C34.9487 56.2678 34.8495 56.2746 34.7673 56.2746C34.5004 56.2746 34.2849 56.2233 34.1206 56.1206C33.9632 56.018 33.8845 55.8503 33.8845 55.6176C33.8845 55.5903 33.888 55.5629 33.8948 55.5355C33.9017 55.5013 33.9085 55.4602 33.9153 55.4123C33.9222 55.3644 33.929 55.3131 33.9359 55.2584C33.6279 55.6142 33.2823 55.8777 32.8991 56.0488C32.5227 56.213 32.1224 56.2951 31.6981 56.2951ZM36.4964 56.1925L37.6358 50.8034H39.2782L38.8471 52.8153H40.6845L41.1157 50.8034H42.7581L41.6084 56.1925H39.966L40.4177 54.0574H38.5905L38.1388 56.1925H36.4964ZM45.5848 56.2951C44.9757 56.2951 44.4728 56.1651 44.0758 55.9051C43.6858 55.645 43.4086 55.3028 43.2444 54.8786C43.0801 54.4543 43.0322 53.9958 43.1007 53.503C43.1554 53.1267 43.2683 52.7708 43.4394 52.4355C43.6105 52.1002 43.8363 51.8025 44.1169 51.5424C44.4043 51.2824 44.7362 51.0771 45.1126 50.9265C45.4958 50.776 45.9133 50.7007 46.3649 50.7007C46.9808 50.7007 47.4838 50.8307 47.8739 51.0908C48.2708 51.3508 48.5514 51.693 48.7156 52.1173C48.8799 52.5416 48.9278 53.0035 48.8593 53.503C48.8114 53.8726 48.6985 54.225 48.5206 54.5603C48.3495 54.8957 48.1203 55.1933 47.8328 55.4534C47.5523 55.7134 47.2238 55.9187 46.8474 56.0693C46.471 56.2198 46.0501 56.2951 45.5848 56.2951ZM45.7798 54.9915C45.9441 54.9915 46.1049 54.9573 46.2623 54.8888C46.4265 54.8135 46.5737 54.7109 46.7037 54.5809C46.8337 54.444 46.9432 54.2832 47.0322 54.0984C47.1211 53.9136 47.1793 53.7152 47.2067 53.503C47.2477 53.2088 47.2272 52.9487 47.1451 52.7229C47.0698 52.4971 46.9466 52.3226 46.7755 52.1994C46.6045 52.0762 46.406 52.0146 46.1802 52.0146C46.0091 52.0146 45.8448 52.0523 45.6874 52.1275C45.5301 52.196 45.3863 52.2952 45.2563 52.4252C45.1263 52.5552 45.0168 52.7126 44.9278 52.8974C44.8389 53.0753 44.7807 53.2772 44.7533 53.503C44.7123 53.7973 44.7294 54.0574 44.8047 54.2832C44.8868 54.5022 45.0134 54.6767 45.1845 54.8067C45.3555 54.9299 45.554 54.9915 45.7798 54.9915ZM54.4478 56.2541C53.9551 56.2541 53.5274 56.1856 53.1647 56.0488C52.802 55.9051 52.4975 55.7066 52.2511 55.4534C52.0047 55.1933 51.8063 54.8991 51.6557 54.5706L53.1647 53.7494C53.24 53.9547 53.346 54.1326 53.4829 54.2832C53.6198 54.4337 53.7874 54.5501 53.9859 54.6322C54.1843 54.7143 54.4136 54.7554 54.6736 54.7554C54.9953 54.7554 55.2827 54.6972 55.5359 54.5809C55.796 54.4645 56.0184 54.3037 56.2031 54.0984C56.3947 53.8931 56.5487 53.657 56.6651 53.3901C56.7882 53.1232 56.8704 52.8392 56.9114 52.5381C56.973 52.1139 56.9559 51.7375 56.8601 51.409C56.7643 51.0805 56.5864 50.8239 56.3263 50.6391C56.0731 50.4543 55.7378 50.362 55.3203 50.362C54.9371 50.362 54.5915 50.4543 54.2836 50.6391C53.9825 50.817 53.7361 51.0634 53.5445 51.3782L52.3435 50.4441C52.7199 49.9787 53.1647 49.5989 53.6779 49.3047C54.1912 49.0104 54.8208 48.8633 55.5667 48.8633C56.1415 48.8633 56.6377 48.9659 57.0551 49.1712C57.4726 49.3765 57.8079 49.6537 58.0611 50.0027C58.3143 50.3448 58.4888 50.7383 58.5846 51.1832C58.6804 51.6211 58.6907 52.0831 58.6154 52.5689C58.547 53.0617 58.3964 53.5304 58.1637 53.9752C57.9311 54.4201 57.63 54.8135 57.2604 55.1557C56.8977 55.4979 56.4769 55.7682 55.9978 55.9666C55.5256 56.1583 55.009 56.2541 54.4478 56.2541ZM54.2425 53.1438L54.5197 51.7991H57.5171L57.2502 53.1438H54.2425ZM58.7907 56.1925L59.9301 50.8034H61.5623L61.1311 52.8256H61.5623C61.8634 52.6134 62.1474 52.3328 62.4143 51.9838C62.6811 51.628 62.9104 51.2345 63.102 50.8034H64.7752C64.4946 51.385 64.173 51.8983 63.8103 52.3431C63.4476 52.7811 63.0883 53.1472 62.7325 53.4415L64.0156 56.1925H62.2603L61.3159 54.0676H60.8745L60.4228 56.1925H58.7907ZM66.7956 56.2951C66.2892 56.2951 65.8684 56.1925 65.5331 55.9872C65.1977 55.775 64.9479 55.4979 64.7837 55.1557C64.6195 54.8135 64.5373 54.4372 64.5373 54.0266C64.5373 53.6023 64.6195 53.1951 64.7837 52.805C64.9479 52.4081 65.1806 52.0523 65.4817 51.7375C65.7828 51.4227 66.1421 51.1729 66.5595 50.9881C66.9838 50.7965 67.4526 50.7007 67.9659 50.7007C68.5612 50.7007 69.0334 50.8341 69.3824 51.101C69.7383 51.3611 69.9744 51.7033 70.0907 52.1275L68.397 52.61C68.3354 52.4458 68.243 52.3191 68.1198 52.2302C67.9966 52.1412 67.8461 52.0967 67.6682 52.0967C67.4834 52.0967 67.3055 52.1412 67.1344 52.2302C66.9633 52.3123 66.8093 52.4321 66.6725 52.5895C66.5424 52.7469 66.4364 52.9316 66.3542 53.1438C66.279 53.3559 66.2413 53.5886 66.2413 53.8418C66.2413 54.0539 66.2756 54.2421 66.344 54.4064C66.4124 54.5638 66.5082 54.6869 66.6314 54.7759C66.7614 54.8649 66.9051 54.9094 67.0625 54.9094C67.1857 54.9094 67.3055 54.8888 67.4218 54.8478C67.545 54.7999 67.6579 54.7348 67.7606 54.6527C67.8632 54.5706 67.9487 54.4782 68.0172 54.3756L69.5159 54.8683C69.3243 55.142 69.0916 55.3884 68.8178 55.6074C68.5441 55.8195 68.2362 55.9872 67.894 56.1104C67.5518 56.2335 67.1857 56.2951 66.7956 56.2951ZM70.0481 56.1925L71.1875 50.8034H76.1558L75.0061 56.1925H73.3637L74.2465 52.0659H72.563L71.6905 56.1925H70.0481ZM77.1797 50.8034H78.6168L78.4218 51.6759C78.675 51.3679 78.959 51.1284 79.2738 50.9573C79.5954 50.7862 79.9479 50.7007 80.3311 50.7007C80.7211 50.7007 81.053 50.7999 81.3268 50.9984C81.6074 51.19 81.8229 51.45 81.9735 51.7785C82.124 52.107 82.1993 52.48 82.1993 52.8974C82.1993 53.3491 82.1206 53.7802 81.9632 54.1908C81.8058 54.5946 81.5937 54.9573 81.3268 55.2789C81.0599 55.5937 80.7519 55.8435 80.4029 56.0282C80.0539 56.2062 79.6912 56.2951 79.3148 56.2951C78.9385 56.2951 78.6237 56.2096 78.3705 56.0385C78.1241 55.8606 77.9564 55.6211 77.8675 55.3199L77.2105 58.3789H75.5681L77.1797 50.8034ZM79.048 54.9094C79.2327 54.9094 79.4106 54.8614 79.5817 54.7656C79.7528 54.663 79.9068 54.5295 80.0437 54.3653C80.1805 54.2011 80.2866 54.0163 80.3619 53.811C80.444 53.5989 80.4851 53.3833 80.4851 53.1643C80.4851 52.959 80.4474 52.7777 80.3721 52.6203C80.2969 52.456 80.1908 52.3294 80.0539 52.2405C79.9171 52.1446 79.7528 52.0967 79.5612 52.0967C79.4654 52.0967 79.3627 52.1139 79.2533 52.1481C79.1506 52.1823 79.048 52.2336 78.9453 52.302C78.8427 52.3636 78.7434 52.4389 78.6476 52.5279C78.5587 52.6168 78.4731 52.7195 78.391 52.8358L78.1549 53.9444C78.1891 54.1292 78.2439 54.2935 78.3191 54.4372C78.4013 54.5809 78.5039 54.6972 78.6271 54.7862C78.7571 54.8683 78.8974 54.9094 79.048 54.9094ZM85.2394 56.2951C84.7467 56.2951 84.319 56.1925 83.9563 55.9872C83.6005 55.775 83.3233 55.4842 83.1248 55.1146C82.9332 54.7451 82.8374 54.3277 82.8374 53.8623C82.8306 53.4175 82.9059 53.0069 83.0633 52.6305C83.2275 52.2473 83.4567 51.912 83.751 51.6246C84.0453 51.3371 84.3909 51.1113 84.7878 50.9471C85.1915 50.7828 85.6295 50.7007 86.1017 50.7007C86.5054 50.7007 86.8613 50.7623 87.1692 50.8855C87.4772 51.0018 87.7201 51.1763 87.8981 51.409C88.076 51.6348 88.1752 51.912 88.1957 52.2405C88.2231 52.8221 87.9768 53.267 87.4567 53.5749C86.9434 53.8829 86.1564 54.0368 85.0957 54.0368C84.8699 54.0368 84.627 54.0334 84.3669 54.0266C84.1137 54.0129 83.8537 53.9923 83.5868 53.965L83.7613 52.9487C83.9666 52.9693 84.1719 52.9864 84.3772 53.0001C84.5893 53.0069 84.8049 53.0103 85.0239 53.0103C85.4208 53.0103 85.7321 52.9898 85.958 52.9487C86.1907 52.9008 86.3515 52.8324 86.4404 52.7434C86.5362 52.6476 86.5807 52.5313 86.5739 52.3944C86.567 52.2918 86.5328 52.2062 86.4712 52.1378C86.4096 52.0625 86.3275 52.0044 86.2249 51.9633C86.1222 51.9222 86.0059 51.9017 85.8759 51.9017C85.6842 51.9017 85.5063 51.953 85.3421 52.0557C85.1847 52.1583 85.0444 52.302 84.9212 52.4868C84.798 52.6716 84.7022 52.8871 84.6338 53.1335C84.5654 53.3799 84.5311 53.6468 84.5311 53.9342C84.5243 54.1805 84.5551 54.3927 84.6235 54.5706C84.692 54.7417 84.7946 54.8717 84.9315 54.9607C85.0752 55.0496 85.2565 55.0941 85.4755 55.0941C85.6261 55.0941 85.7595 55.077 85.8759 55.0428C85.999 55.0017 86.1051 54.9504 86.1941 54.8888C86.2899 54.8204 86.3686 54.752 86.4302 54.6835C86.4986 54.6151 86.5499 54.5501 86.5841 54.4885L87.9186 54.9094C87.8228 55.0667 87.6962 55.2276 87.5388 55.3918C87.3814 55.5492 87.1898 55.6963 86.9639 55.8332C86.745 55.9701 86.4918 56.083 86.2043 56.1719C85.9238 56.2541 85.6021 56.2951 85.2394 56.2951ZM90.8642 56.2951C90.3578 56.2951 89.937 56.1925 89.6017 55.9872C89.2663 55.775 89.0165 55.4979 88.8523 55.1557C88.6881 54.8135 88.6059 54.4372 88.6059 54.0266C88.6059 53.6023 88.6881 53.1951 88.8523 52.805C89.0165 52.4081 89.2492 52.0523 89.5503 51.7375C89.8514 51.4227 90.2107 51.1729 90.6282 50.9881C91.0524 50.7965 91.5212 50.7007 92.0345 50.7007C92.6298 50.7007 93.102 50.8341 93.451 51.101C93.8069 51.3611 94.043 51.7033 94.1593 52.1275L92.4656 52.61C92.404 52.4458 92.3116 52.3191 92.1884 52.2302C92.0653 52.1412 91.9147 52.0967 91.7368 52.0967C91.552 52.0967 91.3741 52.1412 91.203 52.2302C91.0319 52.3123 90.8779 52.4321 90.7411 52.5895C90.611 52.7469 90.505 52.9316 90.4229 53.1438C90.3476 53.3559 90.3099 53.5886 90.3099 53.8418C90.3099 54.0539 90.3442 54.2421 90.4126 54.4064C90.481 54.5638 90.5768 54.6869 90.7 54.7759C90.83 54.8649 90.9737 54.9094 91.1311 54.9094C91.2543 54.9094 91.3741 54.8888 91.4904 54.8478C91.6136 54.7999 91.7265 54.7348 91.8292 54.6527C91.9318 54.5706 92.0173 54.4782 92.0858 54.3756L93.5845 54.8683C93.3929 55.142 93.1602 55.3884 92.8865 55.6074C92.6127 55.8195 92.3048 55.9872 91.9626 56.1104C91.6204 56.2335 91.2543 56.2951 90.8642 56.2951ZM96.4879 56.2951C95.9815 56.2951 95.5607 56.1925 95.2253 55.9872C94.89 55.775 94.6402 55.4979 94.476 55.1557C94.3118 54.8135 94.2296 54.4372 94.2296 54.0266C94.2296 53.6023 94.3118 53.1951 94.476 52.805C94.6402 52.4081 94.8729 52.0523 95.174 51.7375C95.4751 51.4227 95.8344 51.1729 96.2518 50.9881C96.6761 50.7965 97.1449 50.7007 97.6582 50.7007C98.2535 50.7007 98.7257 50.8341 99.0747 51.101C99.4306 51.3611 99.6667 51.7033 99.783 52.1275L98.0893 52.61C98.0277 52.4458 97.9353 52.3191 97.8121 52.2302C97.6889 52.1412 97.5384 52.0967 97.3605 52.0967C97.1757 52.0967 96.9978 52.1412 96.8267 52.2302C96.6556 52.3123 96.5016 52.4321 96.3648 52.5895C96.2347 52.7469 96.1287 52.9316 96.0465 53.1438C95.9713 53.3559 95.9336 53.5886 95.9336 53.8418C95.9336 54.0539 95.9679 54.2421 96.0363 54.4064C96.1047 54.5638 96.2005 54.6869 96.3237 54.7759C96.4537 54.8649 96.5974 54.9094 96.7548 54.9094C96.878 54.9094 96.9978 54.8888 97.1141 54.8478C97.2373 54.7999 97.3502 54.7348 97.4529 54.6527C97.5555 54.5706 97.641 54.4782 97.7095 54.3756L99.2082 54.8683C99.0166 55.142 98.7839 55.3884 98.5101 55.6074C98.2364 55.8195 97.9285 55.9872 97.5863 56.1104C97.2441 56.2335 96.878 56.2951 96.4879 56.2951ZM99.648 56.1925L99.997 54.5193H101.342L100.982 56.1925H99.648ZM104.152 57.5885L104.757 54.7143H105.24C105.473 54.7006 105.681 54.5603 105.866 54.2935C106.058 54.0266 106.239 53.6194 106.41 53.0719C106.588 52.5176 106.766 51.8127 106.944 50.9573L107.375 48.9043H112.508L111.276 54.7143H112.261L111.656 57.5885H110.188L110.475 56.1925H105.917L105.62 57.5885H104.152ZM107.18 54.7143H109.592L110.516 50.3825H108.648L108.463 51.2755C108.34 51.8914 108.217 52.4286 108.094 52.8871C107.97 53.3388 107.837 53.7152 107.693 54.0163C107.55 54.3106 107.378 54.5432 107.18 54.7143ZM115.816 56.2951C115.207 56.2951 114.704 56.1651 114.307 55.9051C113.917 55.645 113.64 55.3028 113.475 54.8786C113.311 54.4543 113.263 53.9958 113.332 53.503C113.386 53.1267 113.499 52.7708 113.67 52.4355C113.841 52.1002 114.067 51.8025 114.348 51.5424C114.635 51.2824 114.967 51.0771 115.344 50.9265C115.727 50.776 116.144 50.7007 116.596 50.7007C117.212 50.7007 117.715 50.8307 118.105 51.0908C118.502 51.3508 118.782 51.693 118.947 52.1173C119.111 52.5416 119.159 53.0035 119.09 53.503C119.042 53.8726 118.93 54.225 118.752 54.5603C118.581 54.8957 118.351 55.1933 118.064 55.4534C117.783 55.7134 117.455 55.9187 117.078 56.0693C116.702 56.2198 116.281 56.2951 115.816 56.2951ZM116.011 54.9915C116.175 54.9915 116.336 54.9573 116.493 54.8888C116.658 54.8135 116.805 54.7109 116.935 54.5809C117.065 54.444 117.174 54.2832 117.263 54.0984C117.352 53.9136 117.41 53.7152 117.438 53.503C117.479 53.2088 117.458 52.9487 117.376 52.7229C117.301 52.4971 117.178 52.3226 117.007 52.1994C116.835 52.0762 116.637 52.0146 116.411 52.0146C116.24 52.0146 116.076 52.0523 115.918 52.1275C115.761 52.196 115.617 52.2952 115.487 52.4252C115.357 52.5552 115.248 52.7126 115.159 52.8974C115.07 53.0753 115.012 53.2772 114.984 53.503C114.943 53.7973 114.96 54.0574 115.036 54.2832C115.118 54.5022 115.244 54.6767 115.415 54.8067C115.587 54.9299 115.785 54.9915 116.011 54.9915ZM121.79 56.2951C121.283 56.2951 120.862 56.1925 120.527 55.9872C120.192 55.775 119.942 55.4979 119.778 55.1557C119.613 54.8135 119.531 54.4372 119.531 54.0266C119.531 53.6023 119.613 53.1951 119.778 52.805C119.942 52.4081 120.175 52.0523 120.476 51.7375C120.777 51.4227 121.136 51.1729 121.553 50.9881C121.978 50.7965 122.447 50.7007 122.96 50.7007C123.555 50.7007 124.027 50.8341 124.376 51.101C124.732 51.3611 124.968 51.7033 125.085 52.1275L123.391 52.61C123.329 52.4458 123.237 52.3191 123.114 52.2302C122.991 52.1412 122.84 52.0967 122.662 52.0967C122.477 52.0967 122.299 52.1412 122.128 52.2302C121.957 52.3123 121.803 52.4321 121.666 52.5895C121.536 52.7469 121.43 52.9316 121.348 53.1438C121.273 53.3559 121.235 53.5886 121.235 53.8418C121.235 54.0539 121.269 54.2421 121.338 54.4064C121.406 54.5638 121.502 54.6869 121.625 54.7759C121.755 54.8649 121.899 54.9094 122.056 54.9094C122.18 54.9094 122.299 54.8888 122.416 54.8478C122.539 54.7999 122.652 54.7348 122.754 54.6527C122.857 54.5706 122.943 54.4782 123.011 54.3756L124.51 54.8683C124.318 55.142 124.085 55.3884 123.812 55.6074C123.538 55.8195 123.23 55.9872 122.888 56.1104C122.546 56.2335 122.18 56.2951 121.79 56.2951ZM126.089 50.8034H127.567L127.372 51.7067C127.625 51.385 127.933 51.1387 128.296 50.9676C128.666 50.7897 129.045 50.7007 129.435 50.7007C129.73 50.7007 129.962 50.7486 130.133 50.8444C130.311 50.9334 130.441 51.0566 130.524 51.214C130.606 51.3713 130.65 51.5493 130.657 51.7477C130.842 51.5219 131.04 51.3337 131.252 51.1832C131.471 51.0326 131.704 50.9163 131.95 50.8341C132.204 50.7452 132.457 50.7007 132.71 50.7007C133.032 50.7007 133.278 50.7589 133.449 50.8752C133.627 50.9847 133.75 51.1318 133.819 51.3166C133.887 51.5014 133.921 51.7067 133.921 51.9325C133.921 52.0146 133.914 52.1241 133.901 52.261C133.887 52.391 133.86 52.5518 133.819 52.7434L133.08 56.1925H131.437L132.084 53.1643C132.118 53.0001 132.135 52.8564 132.135 52.7332C132.135 52.5347 132.091 52.3876 132.002 52.2918C131.92 52.196 131.813 52.1481 131.683 52.1481C131.553 52.1481 131.413 52.1891 131.263 52.2712C131.112 52.3534 130.968 52.4697 130.831 52.6203C130.701 52.764 130.585 52.9248 130.482 53.1027L129.836 56.1925H128.193L128.84 53.1643C128.861 53.0822 128.874 53.0069 128.881 52.9385C128.888 52.8632 128.891 52.7948 128.891 52.7332C128.891 52.5347 128.85 52.3876 128.768 52.2918C128.686 52.196 128.573 52.1481 128.429 52.1481C128.238 52.1481 128.026 52.2405 127.793 52.4252C127.567 52.6031 127.382 52.829 127.239 53.1027L126.582 56.1925H124.939L126.089 50.8034ZM136.277 56.2951C135.88 56.2951 135.538 56.2027 135.25 56.018C134.97 55.8264 134.751 55.5663 134.593 55.2378C134.443 54.9025 134.367 54.5261 134.367 54.1087C134.367 53.6502 134.446 53.2156 134.603 52.805C134.761 52.3944 134.976 52.0352 135.25 51.7272C135.524 51.4124 135.835 51.1626 136.184 50.9779C136.54 50.7931 136.913 50.7007 137.303 50.7007C137.652 50.7007 137.95 50.7931 138.196 50.9779C138.449 51.1558 138.62 51.3919 138.709 51.6861L138.894 50.8341H140.547L139.787 54.3448C139.78 54.3858 139.774 54.4235 139.767 54.4577C139.767 54.4919 139.767 54.5261 139.767 54.5603C139.767 54.7177 139.852 54.7999 140.023 54.8067L139.736 56.1925C139.585 56.2198 139.452 56.2404 139.336 56.2541C139.219 56.2678 139.12 56.2746 139.038 56.2746C138.771 56.2746 138.559 56.2233 138.402 56.1206C138.244 56.0111 138.165 55.8332 138.165 55.5868C138.165 55.5595 138.165 55.5321 138.165 55.5047C138.165 55.4773 138.169 55.4466 138.176 55.4123C138.183 55.3781 138.189 55.3405 138.196 55.2994C137.943 55.6347 137.645 55.8845 137.303 56.0488C136.968 56.213 136.626 56.2951 136.277 56.2951ZM137.016 54.9094C137.118 54.9094 137.221 54.8922 137.324 54.858C137.433 54.817 137.539 54.7656 137.642 54.7041C137.745 54.6425 137.844 54.5638 137.94 54.468C138.035 54.3721 138.121 54.2695 138.196 54.16L138.432 53.0309C138.412 52.8461 138.357 52.6853 138.268 52.5484C138.186 52.4115 138.08 52.302 137.95 52.2199C137.82 52.1378 137.683 52.0967 137.539 52.0967C137.348 52.0967 137.166 52.1446 136.995 52.2405C136.824 52.3363 136.67 52.4663 136.533 52.6305C136.403 52.7948 136.297 52.983 136.215 53.1951C136.14 53.4004 136.102 53.616 136.102 53.8418C136.102 54.0471 136.136 54.2319 136.205 54.3961C136.28 54.5535 136.386 54.6801 136.523 54.7759C136.66 54.8649 136.824 54.9094 137.016 54.9094ZM143.522 56.2951C142.687 56.2883 142.071 56.0864 141.674 55.6895C141.277 55.2857 141.092 54.7041 141.12 53.9444C141.147 53.2327 141.301 52.6374 141.581 52.1583C141.869 51.6793 142.259 51.3166 142.752 51.0702C143.251 50.8239 143.823 50.7007 144.466 50.7007C145.068 50.7007 145.53 50.8273 145.852 51.0805C146.173 51.3269 146.334 51.6656 146.334 52.0967C146.334 52.4663 146.201 52.7913 145.934 53.0719C145.674 53.3525 145.315 53.5715 144.856 53.7289C144.404 53.8863 143.888 53.965 143.306 53.965C143.094 53.965 142.871 53.9581 142.639 53.9444C142.413 53.9239 142.187 53.9 141.961 53.8726L142.136 53.0924C142.362 53.1198 142.577 53.1403 142.783 53.154C142.995 53.1677 143.19 53.1746 143.368 53.1746C143.771 53.1746 144.09 53.1335 144.322 53.0514C144.555 52.9624 144.719 52.8495 144.815 52.7126C144.918 52.5758 144.969 52.4389 144.969 52.302C144.969 52.1789 144.924 52.0728 144.836 51.9838C144.747 51.888 144.589 51.8401 144.363 51.8401C144.076 51.8401 143.812 51.9257 143.573 52.0967C143.333 52.261 143.135 52.5005 142.978 52.8153C142.827 53.1232 142.741 53.503 142.721 53.9547C142.694 54.3379 142.748 54.639 142.885 54.858C143.029 55.0702 143.323 55.1762 143.768 55.1762C143.96 55.1762 144.131 55.1489 144.281 55.0941C144.439 55.0394 144.562 54.9573 144.651 54.8478C144.74 54.7314 144.784 54.5911 144.784 54.4269C144.784 54.2421 144.733 54.0984 144.63 53.9958C144.528 53.8931 144.411 53.8213 144.281 53.7802C144.158 53.7391 144.062 53.7186 143.994 53.7186L144.476 53.1643C144.531 53.1643 144.627 53.178 144.764 53.2054C144.907 53.2259 145.065 53.267 145.236 53.3285C145.407 53.3833 145.575 53.462 145.739 53.5646C145.903 53.6673 146.037 53.7973 146.139 53.9547C146.249 54.1121 146.303 54.3037 146.303 54.5295C146.303 54.8991 146.18 55.2173 145.934 55.4842C145.687 55.7442 145.356 55.9461 144.938 56.0898C144.521 56.2267 144.049 56.2951 143.522 56.2951ZM148.212 56.2951C147.37 56.2951 146.949 55.864 146.949 55.0017C146.949 54.8854 146.956 54.7691 146.97 54.6527C146.99 54.5295 147.014 54.3961 147.042 54.2524L147.781 50.8034H149.413L148.756 53.8931C148.722 54.0437 148.705 54.1771 148.705 54.2935C148.705 54.7041 148.876 54.9094 149.218 54.9094C149.348 54.9094 149.478 54.8854 149.608 54.8375C149.738 54.7827 149.875 54.6972 150.018 54.5809C150.162 54.4645 150.302 54.314 150.439 54.1292L151.148 50.8034H152.79L152.041 54.3448C152.034 54.3858 152.027 54.4235 152.02 54.4577C152.013 54.4919 152.01 54.5261 152.01 54.5603C152.01 54.7177 152.099 54.7999 152.277 54.8067L151.979 56.1925C151.828 56.2198 151.695 56.2404 151.579 56.2541C151.462 56.2678 151.363 56.2746 151.281 56.2746C151.014 56.2746 150.799 56.2233 150.634 56.1206C150.477 56.018 150.398 55.8503 150.398 55.6176C150.398 55.5903 150.402 55.5629 150.409 55.5355C150.415 55.5013 150.422 55.4602 150.429 55.4123C150.436 55.3644 150.443 55.3131 150.45 55.2584C150.142 55.6142 149.796 55.8777 149.413 56.0488C149.036 56.213 148.636 56.2951 148.212 56.2951ZM153.01 56.1925L154.15 50.8034H155.854L156.716 53.6468L158.8 50.8034H160.586L159.436 56.1925H157.876L158.553 53.0206L156.942 55.2481H155.915L155.238 53.0206L154.56 56.1925H153.01ZM165.706 56.2951C164.871 56.2883 164.255 56.0864 163.858 55.6895C163.461 55.2857 163.276 54.7041 163.304 53.9444C163.331 53.2327 163.485 52.6374 163.766 52.1583C164.053 51.6793 164.443 51.3166 164.936 51.0702C165.435 50.8239 166.007 50.7007 166.65 50.7007C167.252 50.7007 167.714 50.8273 168.036 51.0805C168.357 51.3269 168.518 51.6656 168.518 52.0967C168.518 52.4663 168.385 52.7913 168.118 53.0719C167.858 53.3525 167.499 53.5715 167.04 53.7289C166.588 53.8863 166.072 53.965 165.49 53.965C165.278 53.965 165.055 53.9581 164.823 53.9444C164.597 53.9239 164.371 53.9 164.145 53.8726L164.32 53.0924C164.546 53.1198 164.761 53.1403 164.967 53.154C165.179 53.1677 165.374 53.1746 165.552 53.1746C165.955 53.1746 166.274 53.1335 166.506 53.0514C166.739 52.9624 166.903 52.8495 166.999 52.7126C167.102 52.5758 167.153 52.4389 167.153 52.302C167.153 52.1789 167.108 52.0728 167.02 51.9838C166.931 51.888 166.773 51.8401 166.547 51.8401C166.26 51.8401 165.996 51.9257 165.757 52.0967C165.517 52.261 165.319 52.5005 165.162 52.8153C165.011 53.1232 164.925 53.503 164.905 53.9547C164.878 54.3379 164.932 54.639 165.069 54.858C165.213 55.0702 165.507 55.1762 165.952 55.1762C166.144 55.1762 166.315 55.1489 166.465 55.0941C166.623 55.0394 166.746 54.9573 166.835 54.8478C166.924 54.7314 166.968 54.5911 166.968 54.4269C166.968 54.2421 166.917 54.0984 166.814 53.9958C166.712 53.8931 166.595 53.8213 166.465 53.7802C166.342 53.7391 166.246 53.7186 166.178 53.7186L166.66 53.1643C166.715 53.1643 166.811 53.178 166.948 53.2054C167.091 53.2259 167.249 53.267 167.42 53.3285C167.591 53.3833 167.759 53.462 167.923 53.5646C168.087 53.6673 168.221 53.7973 168.323 53.9547C168.433 54.1121 168.487 54.3037 168.487 54.5295C168.487 54.8991 168.364 55.2173 168.118 55.4842C167.872 55.7442 167.54 55.9461 167.122 56.0898C166.705 56.2267 166.233 56.2951 165.706 56.2951ZM171.34 56.2951C170.834 56.2951 170.413 56.1925 170.078 55.9872C169.742 55.775 169.492 55.4979 169.328 55.1557C169.164 54.8135 169.082 54.4372 169.082 54.0266C169.082 53.6023 169.164 53.1951 169.328 52.805C169.492 52.4081 169.725 52.0523 170.026 51.7375C170.327 51.4227 170.687 51.1729 171.104 50.9881C171.528 50.7965 171.997 50.7007 172.51 50.7007C173.106 50.7007 173.578 50.8341 173.927 51.101C174.283 51.3611 174.519 51.7033 174.635 52.1275L172.942 52.61C172.88 52.4458 172.788 52.3191 172.664 52.2302C172.541 52.1412 172.391 52.0967 172.213 52.0967C172.028 52.0967 171.85 52.1412 171.679 52.2302C171.508 52.3123 171.354 52.4321 171.217 52.5895C171.087 52.7469 170.981 52.9316 170.899 53.1438C170.824 53.3559 170.786 53.5886 170.786 53.8418C170.786 54.0539 170.82 54.2421 170.889 54.4064C170.957 54.5638 171.053 54.6869 171.176 54.7759C171.306 54.8649 171.45 54.9094 171.607 54.9094C171.73 54.9094 171.85 54.8888 171.966 54.8478C172.09 54.7999 172.202 54.7348 172.305 54.6527C172.408 54.5706 172.493 54.4782 172.562 54.3756L174.06 54.8683C173.869 55.142 173.636 55.3884 173.362 55.6074C173.089 55.8195 172.781 55.9872 172.439 56.1104C172.096 56.2335 171.73 56.2951 171.34 56.2951ZM177.344 56.2951C176.851 56.2951 176.423 56.1925 176.061 55.9872C175.705 55.775 175.428 55.4842 175.229 55.1146C175.037 54.7451 174.942 54.3277 174.942 53.8623C174.935 53.4175 175.01 53.0069 175.168 52.6305C175.332 52.2473 175.561 51.912 175.855 51.6246C176.15 51.3371 176.495 51.1113 176.892 50.9471C177.296 50.7828 177.734 50.7007 178.206 50.7007C178.61 50.7007 178.966 50.7623 179.274 50.8855C179.581 51.0018 179.824 51.1763 180.002 51.409C180.18 51.6348 180.279 51.912 180.3 52.2405C180.327 52.8221 180.081 53.267 179.561 53.5749C179.048 53.8829 178.261 54.0368 177.2 54.0368C176.974 54.0368 176.731 54.0334 176.471 54.0266C176.218 54.0129 175.958 53.9923 175.691 53.965L175.866 52.9487C176.071 52.9693 176.276 52.9864 176.481 53.0001C176.694 53.0069 176.909 53.0103 177.128 53.0103C177.525 53.0103 177.836 52.9898 178.062 52.9487C178.295 52.9008 178.456 52.8324 178.545 52.7434C178.64 52.6476 178.685 52.5313 178.678 52.3944C178.671 52.2918 178.637 52.2062 178.575 52.1378C178.514 52.0625 178.432 52.0044 178.329 51.9633C178.226 51.9222 178.11 51.9017 177.98 51.9017C177.789 51.9017 177.611 51.953 177.446 52.0557C177.289 52.1583 177.149 52.302 177.025 52.4868C176.902 52.6716 176.806 52.8871 176.738 53.1335C176.67 53.3799 176.635 53.6468 176.635 53.9342C176.629 54.1805 176.659 54.3927 176.728 54.5706C176.796 54.7417 176.899 54.8717 177.036 54.9607C177.179 55.0496 177.361 55.0941 177.58 55.0941C177.73 55.0941 177.864 55.077 177.98 55.0428C178.103 55.0017 178.209 54.9504 178.298 54.8888C178.394 54.8204 178.473 54.752 178.534 54.6835C178.603 54.6151 178.654 54.5501 178.688 54.4885L180.023 54.9094C179.927 55.0667 179.8 55.2276 179.643 55.3918C179.486 55.5492 179.294 55.6963 179.068 55.8332C178.849 55.9701 178.596 56.083 178.309 56.1719C178.028 56.2541 177.706 56.2951 177.344 56.2951ZM176.697 50.1053L176.984 48.7811H178.329L178.052 50.1053H176.697ZM178.801 50.1053L179.089 48.7811H180.423L180.156 50.1053H178.801ZM180.505 56.1925L180.854 54.5193H182.199L181.839 56.1925H180.505Z" fill="black"/>
<defs>
<clipPath id="clip0_974_1599">
<rect width="42.808" height="40.2046" fill="white" transform="translate(1)"/>
</clipPath>
</defs>
</svg>
